<svg width="233" height="39" viewBox="0 0 233 39" fill="none" xmlns="http://www.w3.org/2000/svg">
<rect y="3" width="111" height="36" rx="4" fill="#E18CFF"/>
<path d="M23.7322 16.4567C23.647 15.5973 23.2813 14.9297 22.6349 14.4538C21.9886 13.978 21.1115 13.7401 20.0036 13.7401C19.2507 13.7401 18.6151 13.8466 18.0966 14.0597C17.5781 14.2656 17.1804 14.5533 16.9034 14.9226C16.6335 15.2919 16.4986 15.7109 16.4986 16.1797C16.4844 16.5703 16.5661 16.9112 16.7436 17.2024C16.9283 17.4936 17.1804 17.7457 17.5 17.9588C17.8196 18.1648 18.1889 18.3459 18.608 18.5021C19.027 18.6513 19.4744 18.7791 19.9503 18.8857L21.9105 19.3544C22.8622 19.5675 23.7358 19.8516 24.5312 20.2067C25.3267 20.5618 26.0156 20.9986 26.598 21.517C27.1804 22.0355 27.6314 22.6463 27.951 23.3494C28.2777 24.0526 28.4446 24.8587 28.4517 25.7678C28.4446 27.103 28.1037 28.2607 27.429 29.2408C26.7614 30.2138 25.7955 30.9702 24.5312 31.5099C23.2741 32.0426 21.7578 32.3089 19.9822 32.3089C18.2209 32.3089 16.6868 32.0391 15.38 31.4993C14.0803 30.9595 13.0646 30.1605 12.3331 29.1023C11.6087 28.0369 11.2287 26.7195 11.1932 25.1499H15.657C15.7067 25.8814 15.9162 26.4922 16.2855 26.9822C16.6619 27.4652 17.1626 27.831 17.7876 28.0795C18.4197 28.321 19.1335 28.4418 19.929 28.4418C20.7102 28.4418 21.3885 28.3281 21.9638 28.1009C22.5462 27.8736 22.9972 27.5575 23.3168 27.1527C23.6364 26.7479 23.7962 26.2827 23.7962 25.7571C23.7962 25.267 23.6506 24.8551 23.3594 24.5213C23.0753 24.1875 22.6563 23.9034 22.1023 23.669C21.5554 23.4347 20.8842 23.2216 20.0888 23.0298L17.7131 22.4332C15.8736 21.9858 14.4212 21.2862 13.3558 20.3345C12.2905 19.3828 11.7614 18.1009 11.7685 16.4886C11.7614 15.1676 12.1129 14.0135 12.8232 13.0263C13.5405 12.0391 14.5241 11.2685 15.7741 10.7145C17.0241 10.1605 18.4446 9.88352 20.0355 9.88352C21.6548 9.88352 23.0682 10.1605 24.2756 10.7145C25.4901 11.2685 26.4347 12.0391 27.1094 13.0263C27.7841 14.0135 28.1321 15.157 28.1534 16.4567H23.7322ZM31.5545 32V10.1818H46.2562V13.9851H36.1674V19.1839H45.4998V22.9872H36.1674V28.1967H46.2988V32H31.5545ZM68.1729 10.1818V32H64.1886L54.6964 18.2678H54.5366V32H49.9237V10.1818H53.9719L63.3896 23.9034H63.5813V10.1818H68.1729ZM75.7449 32H70.8017L78.3336 10.1818H84.2782L91.7995 32H86.8564L81.3912 15.1676H81.2207L75.7449 32ZM75.4359 23.424H87.112V27.0249H75.4359V23.424ZM99.0385 10.1818V32H94.4256V10.1818H99.0385Z" fill="#191820"/>
<path d="M123.55 29.375C122.367 29.375 121.2 29.25 120.05 29C118.917 28.7333 118.008 28.3667 117.325 27.9C117.108 27.75 117 27.6167 117 27.5C117 27.3833 117.033 27.2833 117.1 27.2L117.925 25.9C118.025 25.75 118.117 25.675 118.2 25.675C118.283 25.675 118.392 25.7167 118.525 25.8C119.142 26.1667 119.858 26.4667 120.675 26.7C121.492 26.9167 122.317 27.025 123.15 27.025C124.283 27.025 125.133 26.8417 125.7 26.475C126.283 26.0917 126.575 25.4833 126.575 24.65C126.575 24.15 126.467 23.75 126.25 23.45C126.033 23.15 125.717 22.8917 125.3 22.675C124.883 22.4583 124.208 22.1667 123.275 21.8L122.7 21.575C121.617 21.1417 120.717 20.725 120 20.325C119.3 19.925 118.717 19.4 118.25 18.75C117.783 18.1 117.55 17.3083 117.55 16.375C117.55 14.8583 118.125 13.6917 119.275 12.875C120.442 12.0417 121.967 11.625 123.85 11.625C125 11.625 125.992 11.7333 126.825 11.95C127.675 12.1667 128.408 12.5 129.025 12.95C129.225 13.1 129.325 13.2417 129.325 13.375C129.325 13.475 129.292 13.5667 129.225 13.65L128.425 14.95C128.325 15.1 128.242 15.175 128.175 15.175C128.108 15.175 128 15.125 127.85 15.025C126.783 14.3417 125.458 14 123.875 14C122.825 14 122.033 14.1917 121.5 14.575C120.967 14.9583 120.7 15.5667 120.7 16.4C120.7 16.9167 120.808 17.3333 121.025 17.65C121.258 17.95 121.592 18.2083 122.025 18.425C122.458 18.6417 123.158 18.9333 124.125 19.3L124.75 19.55C125.967 20.0333 126.917 20.4833 127.6 20.9C128.283 21.3 128.808 21.8083 129.175 22.425C129.558 23.025 129.75 23.8 129.75 24.75C129.75 26.1833 129.208 27.3167 128.125 28.15C127.058 28.9667 125.533 29.375 123.55 29.375ZM138.105 29.375C135.939 29.375 134.264 28.8083 133.08 27.675C131.914 26.525 131.33 24.9667 131.33 23C131.33 21.0333 131.914 19.4833 133.08 18.35C134.264 17.2 135.939 16.625 138.105 16.625C140.272 16.625 141.947 17.2 143.13 18.35C144.314 19.4833 144.905 21.0333 144.905 23C144.905 24.9667 144.314 26.525 143.13 27.675C141.947 28.8083 140.272 29.375 138.105 29.375ZM138.105 27.025C139.289 27.025 140.189 26.6833 140.805 26C141.422 25.3167 141.73 24.3167 141.73 23C141.73 21.7 141.422 20.7167 140.805 20.05C140.189 19.3667 139.289 19.025 138.105 19.025C136.939 19.025 136.039 19.3667 135.405 20.05C134.789 20.7167 134.48 21.7 134.48 23C134.48 24.3 134.789 25.3 135.405 26C136.039 26.6833 136.939 27.025 138.105 27.025ZM148.283 29C147.949 29 147.708 28.925 147.558 28.775C147.424 28.625 147.358 28.4 147.358 28.1V12.925C147.358 12.6083 147.424 12.375 147.558 12.225C147.708 12.075 147.949 12 148.283 12H149.608C149.941 12 150.183 12.075 150.333 12.225C150.483 12.375 150.558 12.6083 150.558 12.925V28.1C150.558 28.4 150.483 28.625 150.333 28.775C150.199 28.925 149.958 29 149.608 29H148.283ZM157.935 29.375C156.568 29.375 155.468 29 154.635 28.25C153.802 27.4833 153.385 26.35 153.385 24.85V17.925C153.385 17.6083 153.452 17.375 153.585 17.225C153.735 17.075 153.977 17 154.31 17H155.635C155.968 17 156.21 17.075 156.36 17.225C156.51 17.375 156.585 17.6083 156.585 17.925V24.775C156.585 25.575 156.793 26.1667 157.21 26.55C157.627 26.9167 158.243 27.1 159.06 27.1C159.927 27.1 160.652 26.8583 161.235 26.375C161.818 25.8917 162.11 25.2667 162.11 24.5V17.925C162.11 17.6083 162.185 17.375 162.335 17.225C162.485 17.075 162.727 17 163.06 17H164.36C164.693 17 164.935 17.075 165.085 17.225C165.235 17.375 165.31 17.6083 165.31 17.925V28.325C165.31 28.5917 165.268 28.775 165.185 28.875C165.102 28.9583 164.927 29 164.66 29H163.26C163.077 29 162.943 28.9667 162.86 28.9C162.777 28.8167 162.727 28.6917 162.71 28.525L162.61 27.475C161.477 28.7417 159.918 29.375 157.935 29.375ZM173.781 29.375C172.365 29.375 171.298 28.9833 170.581 28.2C169.865 27.4167 169.506 26.3333 169.506 24.95V19.35H168.081C167.748 19.35 167.523 19.2917 167.406 19.175C167.306 19.0583 167.256 18.8417 167.256 18.525V17.85C167.256 17.5333 167.306 17.3167 167.406 17.2C167.523 17.0667 167.748 17 168.081 17H169.506V15.625C169.506 15.275 169.565 14.95 169.681 14.65C169.815 14.3333 170.015 13.9417 170.281 13.475C170.381 13.275 170.473 13.15 170.556 13.1C170.656 13.0333 170.823 13 171.056 13H171.881C172.181 13 172.39 13.075 172.506 13.225C172.64 13.3583 172.706 13.5667 172.706 13.85V17H175.656C175.99 17 176.206 17.0667 176.306 17.2C176.423 17.3167 176.481 17.5333 176.481 17.85V18.525C176.481 18.8417 176.423 19.0583 176.306 19.175C176.206 19.2917 175.99 19.35 175.656 19.35H172.706V24.85C172.706 25.6167 172.84 26.175 173.106 26.525C173.373 26.8583 173.831 27.025 174.481 27.025C174.865 27.025 175.19 26.9833 175.456 26.9C175.723 26.8 176.015 26.6417 176.331 26.425C176.415 26.3583 176.506 26.325 176.606 26.325C176.706 26.325 176.806 26.4 176.906 26.55L177.631 27.75C177.698 27.8333 177.731 27.925 177.731 28.025C177.731 28.1417 177.648 28.2583 177.481 28.375C176.448 29.0417 175.215 29.375 173.781 29.375ZM180.932 14.925C180.532 14.925 180.224 14.8083 180.007 14.575C179.79 14.3417 179.682 14.0583 179.682 13.725V13.2C179.682 12.8667 179.79 12.5833 180.007 12.35C180.224 12.1167 180.532 12 180.932 12H182.007C182.407 12 182.715 12.1167 182.932 12.35C183.165 12.5833 183.282 12.8667 183.282 13.2V13.725C183.282 14.0583 183.165 14.3417 182.932 14.575C182.715 14.8083 182.407 14.925 182.007 14.925H180.932ZM180.832 29C180.499 29 180.257 28.925 180.107 28.775C179.957 28.625 179.882 28.4 179.882 28.1V17.925C179.882 17.6083 179.957 17.375 180.107 17.225C180.257 17.075 180.499 17 180.832 17H182.132C182.465 17 182.707 17.075 182.857 17.225C183.007 17.375 183.082 17.6083 183.082 17.925V28.1C183.082 28.4 183.007 28.625 182.857 28.775C182.724 28.925 182.482 29 182.132 29H180.832ZM192.5 29.375C190.333 29.375 188.658 28.8083 187.475 27.675C186.308 26.525 185.725 24.9667 185.725 23C185.725 21.0333 186.308 19.4833 187.475 18.35C188.658 17.2 190.333 16.625 192.5 16.625C194.667 16.625 196.342 17.2 197.525 18.35C198.708 19.4833 199.3 21.0333 199.3 23C199.3 24.9667 198.708 26.525 197.525 27.675C196.342 28.8083 194.667 29.375 192.5 29.375ZM192.5 27.025C193.683 27.025 194.583 26.6833 195.2 26C195.817 25.3167 196.125 24.3167 196.125 23C196.125 21.7 195.817 20.7167 195.2 20.05C194.583 19.3667 193.683 19.025 192.5 19.025C191.333 19.025 190.433 19.3667 189.8 20.05C189.183 20.7167 188.875 21.7 188.875 23C188.875 24.3 189.183 25.3 189.8 26C190.433 26.6833 191.333 27.025 192.5 27.025ZM202.702 29C202.369 29 202.127 28.925 201.977 28.775C201.827 28.625 201.752 28.4 201.752 28.1V17.675C201.752 17.425 201.794 17.25 201.877 17.15C201.961 17.05 202.136 17 202.402 17H203.827C204.194 17 204.386 17.1667 204.402 17.5L204.452 18.5C205.586 17.25 207.211 16.625 209.327 16.625C210.677 16.625 211.761 16.9917 212.577 17.725C213.411 18.4417 213.827 19.525 213.827 20.975V28.1C213.827 28.4 213.752 28.625 213.602 28.775C213.469 28.925 213.236 29 212.902 29H211.577C211.244 29 211.002 28.925 210.852 28.775C210.702 28.625 210.627 28.4 210.627 28.1V21.175C210.627 20.3583 210.436 19.7833 210.052 19.45C209.686 19.1 209.086 18.925 208.252 18.925C207.369 18.925 206.594 19.1667 205.927 19.65C205.277 20.1167 204.952 20.725 204.952 21.475V28.1C204.952 28.4 204.877 28.625 204.727 28.775C204.594 28.925 204.352 29 204.002 29H202.702ZM221.845 29.375C220.845 29.375 219.87 29.2667 218.92 29.05C217.97 28.85 217.153 28.5417 216.47 28.125C216.253 28.0083 216.145 27.8833 216.145 27.75C216.145 27.65 216.178 27.5583 216.245 27.475L216.945 26.25C217.028 26.1 217.112 26.025 217.195 26.025C217.278 26.025 217.387 26.0667 217.52 26.15C218.02 26.45 218.637 26.7 219.37 26.9C220.103 27.1 220.778 27.2 221.395 27.2C222.345 27.2 223.02 27.1083 223.42 26.925C223.837 26.725 224.045 26.375 224.045 25.875C224.045 25.5917 223.962 25.3667 223.795 25.2C223.645 25.0167 223.412 24.8583 223.095 24.725C222.778 24.5917 222.253 24.4083 221.52 24.175C221.52 24.175 221.245 24.0833 220.695 23.9C219.745 23.5833 218.987 23.275 218.42 22.975C217.853 22.675 217.412 22.3 217.095 21.85C216.795 21.3833 216.645 20.8 216.645 20.1C216.645 18.9667 217.12 18.1083 218.07 17.525C219.037 16.925 220.287 16.625 221.82 16.625C223.687 16.625 225.295 17.025 226.645 17.825C226.862 17.9417 226.97 18.0667 226.97 18.2C226.97 18.2833 226.928 18.3917 226.845 18.525L226.17 19.6C226.07 19.75 225.987 19.825 225.92 19.825C225.853 19.825 225.753 19.7833 225.62 19.7C225.187 19.4333 224.662 19.225 224.045 19.075C223.445 18.9083 222.837 18.825 222.22 18.825C221.387 18.825 220.77 18.9167 220.37 19.1C219.987 19.2667 219.795 19.6 219.795 20.1C219.795 20.5333 220.02 20.875 220.47 21.125C220.937 21.375 221.737 21.675 222.87 22.025L223.695 22.275C224.995 22.6917 225.903 23.1833 226.42 23.75C226.953 24.3167 227.22 25.025 227.22 25.875C227.22 26.9083 226.762 27.75 225.845 28.4C224.945 29.05 223.612 29.375 221.845 29.375ZM230.232 29C229.932 29 229.682 28.8917 229.482 28.675C229.282 28.4583 229.182 28.2 229.182 27.9V27.45C229.182 27.1333 229.282 26.8667 229.482 26.65C229.682 26.4333 229.932 26.325 230.232 26.325H230.707C231.007 26.325 231.257 26.4333 231.457 26.65C231.657 26.8667 231.757 27.1333 231.757 27.45V27.9C231.757 28.2 231.657 28.4583 231.457 28.675C231.257 28.8917 231.007 29 230.707 29H230.232Z" fill="white"/>
</svg>
